<svg id="Слой_1" data-name="Слой 1" xmlns="http://www.w3.org/2000/svg" viewBox="0 0 126.49 118.37"><defs><style>.cls-1{font-size:21.37px;font-family:Cormorant-Regular, Cormorant;letter-spacing:0.29em;}.cls-1,.cls-4{fill:#a22c3f;}.cls-2{letter-spacing:0.3em;}.cls-3{fill:none;stroke:#a22c3f;stroke-width:0.5px;}.cls-3,.cls-4{stroke-miterlimit:10;}.cls-4{stroke:#a32c40;stroke-width:0.2px;}</style></defs><title>Darmed Logo2svg</title><text class="cls-1" transform="translate(0 112.32)">D<tspan class="cls-2" x="20.92" y="0">ARMED</tspan></text><path class="cls-3" d="M388,140.57c-5.87,6.76-.32,24.37,0,35,.33,9.3-5.28,23.47-5.55,25.39-1.17,8.21-3,16.85-11.23,18.78" transform="translate(-306.23 -140.41)"/><path class="cls-3" d="M351.21,193.17c-.11-1,.34-4.44,1.56-4.85,1.05-.35,1.8.29,1.9,1.57,0,.15,0,.29,0,.43,0,1.13.53,1.54,1.33.9a3.16,3.16,0,0,0,.94-1.49,6.67,6.67,0,0,0-.34-4.32c-.76-1.9-1.54-3.78-2.43-5.6-2.57-5.22-3.4-10.91-3.36-16.85a47,47,0,0,1,.62-8,6,6,0,0,1,3.4-4.79,30.74,30.74,0,0,1,6.69-2.17,34.9,34.9,0,0,1,7.95-.75c4.47.11,7.78,2.61,10.23,6.87a7.07,7.07,0,0,1,1,4.05,4.2,4.2,0,0,1-1,2.62c-3.45,3.88-7.33,7-12,8.38a16.2,16.2,0,0,1-10.44-.55,4.22,4.22,0,0,1-1.18-.71,1.27,1.27,0,0,1-.25-1.94,8.14,8.14,0,0,1,1.84-1.82,11.54,11.54,0,0,1,9.46-1.76c1.86.43,3.69,1,5.55,1.42a3.14,3.14,0,0,0,1.08-.13c-.15-.44-.2-1-.47-1.29a8.4,8.4,0,0,0-2.1-1.65c-3.62-1.82-7.25-2.05-10.84.16-.47.29-.9.66-1.35,1l-.12-.17a5.33,5.33,0,0,1,.57-.59,10,10,0,0,1,8.16-2,10.57,10.57,0,0,1,5.07,2.15,5,5,0,0,1,1.22,1.46c.49.91.13,1.6-.77,1.45a35,35,0,0,1-3.6-.88,15.4,15.4,0,0,0-7.3-.73,10.85,10.85,0,0,0-5.56,2.78c-1.23,1.2-1.13,2,.32,2.74a14.27,14.27,0,0,0,5.31,1.21c5,.48,9.28-1.71,13.25-5a39.15,39.15,0,0,0,3.45-3.25,4.84,4.84,0,0,0,.89-5.75c-2.05-4.5-5.19-7.32-9.57-7.64a30.69,30.69,0,0,0-15.58,2.91,4.91,4.91,0,0,0-2.93,4c-.31,2.33-.6,4.67-.69,7a44.29,44.29,0,0,0,.86,11.09,46.08,46.08,0,0,0,3.28,8.74c.68,1.54,1.33,3.1,1.87,4.71a6.45,6.45,0,0,1,.08,3.67,2.35,2.35,0,0,1-1.57,1.88c-.81.22-1.26-.2-1.3-1.15v-.22c0-.68.14-1.71-.49-2a1.43,1.43,0,0,0-1.64.36" transform="translate(-306.23 -140.41)"/><path class="cls-4" d="M365.39,205.4c-.47.06-.91.15-1.36.18a5.52,5.52,0,0,1-2-.34c-.41-.12-.8-.27-1.21-.39a1.19,1.19,0,0,0-.46,0c-1,.14-2,.3-3,.41a11.06,11.06,0,0,1-3.25-.14c-.66-.12-1.31-.25-2-.33-.4-.05-.81,0-1.21,0a.71.71,0,0,0-.2,0,10.89,10.89,0,0,1-3.13.64,9,9,0,0,1-1.27-.08.53.53,0,0,1-.24-.08c-.06-.05-.13-.12-.13-.18s.1-.12.17-.13a4,4,0,0,1,.69-.11l2.52-.13c.44,0,.88,0,1.31-.06a6.23,6.23,0,0,0,1-.28c.65-.23,1.3-.45,1.94-.69a4.34,4.34,0,0,1,1.9-.08,14,14,0,0,0,1.59.05,5.26,5.26,0,0,1,1.94.25l1.92.69a.74.74,0,0,0,.25,0,10.94,10.94,0,0,1,2.56.11c.51.08,1,.22,1.51.31a.73.73,0,0,0,.39-.13c.13-.08.18-.19.11-.31a2.34,2.34,0,0,0-.2-.27c-.31-.38-.63-.76-.92-1.15a11.37,11.37,0,0,0-3.95-3.33,5.11,5.11,0,0,0-3-.51c-.46.05-.92.14-1.38.18a7.28,7.28,0,0,1-1.32,0,4.85,4.85,0,0,0-2.4.33,11.5,11.5,0,0,0-3.26,1.94c-1,.85-2,1.72-3,2.57a.52.52,0,0,1-.22.12l.08-.07c.86-.77,1.74-1.54,2.59-2.32a13.85,13.85,0,0,1,2.53-2,7,7,0,0,1,2.55-.89,5,5,0,0,1,1.16,0,7,7,0,0,0,1.78-.08,7.83,7.83,0,0,1,2.6-.05,6.25,6.25,0,0,1,2.35,1,11.74,11.74,0,0,1,3.32,3.09c.24.33.51.64.77,1,.06.07.12.13.17.2.24.34.15.64-.26.85a.33.33,0,0,0-.2.25,1.53,1.53,0,0,1-.27.58,7.77,7.77,0,0,1-3.19,2.51,13.28,13.28,0,0,1-4.64,1.18,14.74,14.74,0,0,1-8.09-1.6,10.73,10.73,0,0,1-2.77-2.07l-.12-.13v-.06l.59.56a12.39,12.39,0,0,0,6,2.78,15.78,15.78,0,0,0,4.34.23,11.62,11.62,0,0,0,7.49-3.21,5,5,0,0,0,.51-.72S365.39,205.42,365.39,205.4Zm-14.17-.86,0,.07a9.37,9.37,0,0,1,2.19.25,13.28,13.28,0,0,0,3.33.29c.63,0,1.26-.12,1.89-.2s1.12-.16,1.72-.25l-.11-.06c-.56-.2-1.12-.41-1.69-.59a4.27,4.27,0,0,0-1.39-.15,15.91,15.91,0,0,1-1.83-.07,4.8,4.8,0,0,0-1.81,0C352.75,204,352,204.3,351.22,204.54Zm-.87.22v0l-3.67.2a4.23,4.23,0,0,0-.62.11v.08a3.22,3.22,0,0,0,.44.14,5.91,5.91,0,0,0,1.83,0A11.61,11.61,0,0,0,350.35,204.76Zm14.73.34a11.56,11.56,0,0,0-3.72-.4A5.45,5.45,0,0,0,365.08,205.1Z" transform="translate(-306.23 -140.41)"/></svg>